<?xml version="1.0"?>
<svg width="99.99999999999999" height="84.349419" xmlns="http://www.w3.org/2000/svg" xmlns:svg="http://www.w3.org/2000/svg" version="1.1" xml:space="preserve">
 <metadata id="metadata268">image/svg+xml</metadata>
 <defs id="defs33">
  <linearGradient id="linearGradient59" spreadMethod="pad" x1="0.91" x2="0.15" y1="-0.04" y2="0.81">
   <stop id="stop49" offset="0" stop-color="#58c9ed"/>
   <stop id="stop51" offset="0.15" stop-color="#58c9ed"/>
   <stop id="stop53" offset="0.47" stop-color="#60c332"/>
   <stop id="stop55" offset="0.83" stop-color="#cae31c"/>
   <stop id="stop57" offset="1" stop-color="#cae31c"/>
  </linearGradient>
  <clipPath clipPathUnits="userSpaceOnUse" id="clipPath69">
   <path d="m0,108l216,0l0,-108l-216,0l0,108z" id="path67"/>
  </clipPath>
 </defs>
 <g class="layer">
  <title>Layer 1</title>
  <g id="g35" transform="matrix(1.33333 0 0 -1.33333 3.18667 105.184)">
   <g id="g37">
    <g id="g39">
     <g id="g45">
      <g id="g47">
       <path d="m14.72,46.3l4.63,0l0,3.95l4.91,4.9l6.39,0l0,7.08l-7.08,0l0,-6.39l-4.9,-4.91l-3.95,0l0,-4.63zm-2.04,14.81l0,1.85l-1.85,0l0,-1.42l-1.58,-1.59l-2.95,0l0,-3.37l3.38,0l0,2.95l1.58,1.58l1.42,0zm28.94,-18.67l2.23,2.23l2,0l0,2.61l-2.61,0l0,-2l-2.23,-2.23l-4.16,-0.01l0,-4.76l4.77,0.01l0,4.15zm6.54,-10.34l0,4.76l-4.76,0l-0.01,-4.15l-2.23,-2.23l-2,0l0,-2.61l2.61,0l0,2l2.23,2.23l4.16,0zm-43.39,15.01l-1.79,-1.79l-1.62,0l0,-2.11l2.1,0l0,1.62l1.8,1.8l3.35,0l0,3.84l-3.83,0l-0.01,-3.36zm14.68,-12.67l-2.53,-2.53l-4.71,0l0,-5.39l5.4,0l0,4.71l2.53,2.53l2.26,0l0.01,2.95l-2.96,0l0,-2.27zm8.73,-2.44l-2.53,-2.52l-2.27,0l0,-2.96l2.96,0l0,2.27l2.52,2.53l4.71,0l0,5.39l-5.39,0l0,-4.71zm12.2,19.72l-5.67,0l0,-4.99l-2.57,-2.57l-3.95,0l0,-4.64l4.63,0l0,3.95l2.58,2.57l4.98,0l0,5.68zm-9.19,-5.02l0,4.98l3.05,3.05l5.37,0l0,6.06l-6.06,0l0,-5.37l-3.05,-3.06l-4.98,0l0,-4.97l-2.94,-2.95l-2.9,0l0,-3.58l3.58,0l0,2.9l2.95,2.94l4.98,0zm-12.03,26l-1.25,0l0,-1.25l1.25,0l0,1.25zm-2.22,-4.35l-3.1,0l0,-3.1l3.1,0l0,3.1zm-3.94,3.14l-2.3,0l0,-2.3l2.3,0l0,2.3zm33.38,-43.95l2.11,0l0,2.12l-2.11,0l0,-2.12zm-33.69,16.88l-2.12,0l0,-2.11l2.12,0l0,2.11zm5.34,10.9l-2.11,0l0,-2.11l2.11,0l0,2.11zm5.65,14.38l-4.35,0l0,-4.34l4.35,0l0,4.34zm11.27,-2.01l-4.21,0l0,-4.21l4.21,0l0,4.21zm-14.21,-4.75l-5.57,0l0,-5.57l5.57,0l0,5.57zm27.74,-11.04l-2.8,0l0,-2.79l2.8,0l0,2.79zm-4.88,5.47l-2.25,0l0,-2.25l2.25,0l0,2.25zm-14.89,10.2l-2.74,0l0,-2.74l2.74,0l0,2.74zm-16.24,-13.34l-2.32,0l0,-2.32l2.32,0l0,2.32zm27.08,-18.87l-2.32,0l-0.01,-2.32l2.33,0l0,2.32z" fill="url(#linearGradient59)" id="path61"/>
      </g>
     </g>
    </g>
   </g>
   <g id="g63">
    <g clip-path="url(#clipPath69)" id="g65">
     <path d="m59.05,31.4l-2.96,0l0,2.96l2.96,0l0,-2.96zm-4.48,13.48l-1.61,0l0,1.6l1.61,0l0,-1.6zm-5.84,15.03l-2.84,0l0,2.84l2.84,0l0,-2.84zm-7.69,7.76l-1.65,0l0,1.65l1.65,0l0,-1.65zm25.83,-30.13c-3.76,3.6 -0.97,3.62 -0.9,5.84c0.08,2.21 -1.78,2.63 -1.78,2.63c0.8,1.89 0.9,2.32 0.9,2.32c-1.7,1.3 -2,2.91 -2,2.91c1.7,2.61 2.9,5.6 2.9,5.6c0,0 -11.26,3.61 -15.51,6.34c-1.61,0.66 -1.21,3.14 -1.21,3.14c-11.03,14.15 -27.56,7.03 -27.56,7.03l0,-0.41c0,0 1.25,-0.15 3.25,-0.71l2.77,0l0,-0.9c1.01,-0.38 2.11,-0.85 3.26,-1.41l6.52,0l0,-4.14c0.71,-0.57 1.41,-1.18 2.11,-1.83l3.6,0l0,-3.99c0.89,-1.15 1.74,-2.4 2.54,-3.77c0.5,-0.77 0.95,-1.54 1.38,-2.32l3.24,0l0,-4.54l2.59,0l0,-2.85l-1.3,-0.01c0,0 0.01,-3.04 0.01,-4.5l-3.44,0l0,-3.5l3.5,0l0,3.41l3.5,0l0,-6.62l-2.61,0c0.64,-9.24 -1.65,-15.88 -1.65,-15.88c1.4,3.91 5.12,7.17 10.2,8.99c4.79,1.72 9.45,5.57 5.69,9.17" fill="#41485b" fill-rule="nonzero" id="path71"/>
     <g id="g87" transform="translate(86.4365,30.3291)">
      <path d="m0,0l118.38,0" fill="#35414d" fill-rule="nonzero" id="path89"/>
     </g>
    </g>
   </g>
  </g>
 </g>
</svg>